<mxfile host="app.diagrams.net" agent="Mozilla/5.0 (Macintosh; Intel Mac OS X 10_15_7) AppleWebKit/537.36 (KHTML, like Gecko) Chrome/130.0.0.0 Safari/537.36" version="24.7.17">
  <diagram id="Ht1M8jgEwFfnCIfOTk4-" name="Page-1">
    <mxGraphModel dx="1460" dy="923" grid="1" gridSize="10" guides="1" tooltips="1" connect="1" arrows="1" fold="1" page="1" pageScale="1" pageWidth="827" pageHeight="1169" math="0" shadow="0">
      <root>
        <mxCell id="0" />
        <mxCell id="1" parent="0" />
        <mxCell id="jZVaUwOg5UY3L9NAnvdq-71" value="AWS IAM" style="points=[[0,0],[0.25,0],[0.5,0],[0.75,0],[1,0],[1,0.25],[1,0.5],[1,0.75],[1,1],[0.75,1],[0.5,1],[0.25,1],[0,1],[0,0.75],[0,0.5],[0,0.25]];outlineConnect=0;gradientColor=none;html=1;whiteSpace=wrap;fontSize=12;fontStyle=0;shape=mxgraph.aws4.group;grIcon=mxgraph.aws4.group_aws_cloud_alt;strokeColor=#232F3E;fillColor=none;verticalAlign=top;align=left;spacingLeft=30;fontColor=#232F3E;dashed=0;labelBackgroundColor=none;container=1;pointerEvents=0;collapsible=0;recursiveResize=0;" parent="1" vertex="1">
          <mxGeometry x="36.5" y="130" width="1103.5" height="750" as="geometry" />
        </mxCell>
        <mxCell id="i77gJU5wFre7sJVHuuvo-12" value="Evento del log" style="edgeStyle=orthogonalEdgeStyle;rounded=0;orthogonalLoop=1;jettySize=auto;html=1;" parent="jZVaUwOg5UY3L9NAnvdq-71" source="i77gJU5wFre7sJVHuuvo-1" target="i77gJU5wFre7sJVHuuvo-10" edge="1">
          <mxGeometry relative="1" as="geometry" />
        </mxCell>
        <mxCell id="i77gJU5wFre7sJVHuuvo-1" value="Dispositivo de&lt;div&gt;Seguridad 1&lt;/div&gt;" style="sketch=0;aspect=fixed;pointerEvents=1;shadow=0;dashed=0;html=1;strokeColor=none;labelPosition=center;verticalLabelPosition=bottom;verticalAlign=top;align=center;fillColor=#00188D;shape=mxgraph.mscae.enterprise.secure_virtual_machine" parent="jZVaUwOg5UY3L9NAnvdq-71" vertex="1">
          <mxGeometry x="23.5" y="80" width="78.95" height="60" as="geometry" />
        </mxCell>
        <mxCell id="i77gJU5wFre7sJVHuuvo-16" value="Evento del log" style="edgeStyle=orthogonalEdgeStyle;rounded=0;orthogonalLoop=1;jettySize=auto;html=1;" parent="jZVaUwOg5UY3L9NAnvdq-71" source="i77gJU5wFre7sJVHuuvo-2" target="i77gJU5wFre7sJVHuuvo-10" edge="1">
          <mxGeometry relative="1" as="geometry" />
        </mxCell>
        <mxCell id="i77gJU5wFre7sJVHuuvo-2" value="&lt;br&gt;&lt;span style=&quot;color: rgb(0, 0, 0); font-family: Helvetica; font-size: 12px; font-style: normal; font-variant-ligatures: normal; font-variant-caps: normal; font-weight: 400; letter-spacing: normal; orphans: 2; text-align: center; text-indent: 0px; text-transform: none; widows: 2; word-spacing: 0px; -webkit-text-stroke-width: 0px; white-space: nowrap; background-color: rgb(251, 251, 251); text-decoration-thickness: initial; text-decoration-style: initial; text-decoration-color: initial; display: inline !important; float: none;&quot;&gt;Dispositivo de&lt;/span&gt;&lt;div style=&quot;forced-color-adjust: none; color: rgb(0, 0, 0); font-family: Helvetica; font-size: 12px; font-style: normal; font-variant-ligatures: normal; font-variant-caps: normal; font-weight: 400; letter-spacing: normal; orphans: 2; text-align: center; text-indent: 0px; text-transform: none; widows: 2; word-spacing: 0px; -webkit-text-stroke-width: 0px; white-space: nowrap; background-color: rgb(251, 251, 251); text-decoration-thickness: initial; text-decoration-style: initial; text-decoration-color: initial;&quot;&gt;Seguridad 2&lt;/div&gt;" style="sketch=0;aspect=fixed;pointerEvents=1;shadow=0;dashed=0;html=1;strokeColor=none;labelPosition=center;verticalLabelPosition=bottom;verticalAlign=top;align=center;fillColor=#00188D;shape=mxgraph.mscae.enterprise.secure_virtual_machine" parent="jZVaUwOg5UY3L9NAnvdq-71" vertex="1">
          <mxGeometry x="23.5" y="348.5" width="78.95" height="60" as="geometry" />
        </mxCell>
        <mxCell id="i77gJU5wFre7sJVHuuvo-13" value="Evento del log" style="edgeStyle=orthogonalEdgeStyle;rounded=0;orthogonalLoop=1;jettySize=auto;html=1;" parent="jZVaUwOg5UY3L9NAnvdq-71" source="i77gJU5wFre7sJVHuuvo-3" target="i77gJU5wFre7sJVHuuvo-10" edge="1">
          <mxGeometry relative="1" as="geometry" />
        </mxCell>
        <mxCell id="i77gJU5wFre7sJVHuuvo-3" value="&lt;br&gt;&lt;span style=&quot;color: rgb(0, 0, 0); font-family: Helvetica; font-size: 12px; font-style: normal; font-variant-ligatures: normal; font-variant-caps: normal; font-weight: 400; letter-spacing: normal; orphans: 2; text-align: center; text-indent: 0px; text-transform: none; widows: 2; word-spacing: 0px; -webkit-text-stroke-width: 0px; white-space: nowrap; background-color: rgb(251, 251, 251); text-decoration-thickness: initial; text-decoration-style: initial; text-decoration-color: initial; display: inline !important; float: none;&quot;&gt;Dispositivo de&lt;/span&gt;&lt;div style=&quot;forced-color-adjust: none; color: rgb(0, 0, 0); font-family: Helvetica; font-size: 12px; font-style: normal; font-variant-ligatures: normal; font-variant-caps: normal; font-weight: 400; letter-spacing: normal; orphans: 2; text-align: center; text-indent: 0px; text-transform: none; widows: 2; word-spacing: 0px; -webkit-text-stroke-width: 0px; white-space: nowrap; background-color: rgb(251, 251, 251); text-decoration-thickness: initial; text-decoration-style: initial; text-decoration-color: initial;&quot;&gt;Seguridad 3&lt;/div&gt;" style="sketch=0;aspect=fixed;pointerEvents=1;shadow=0;dashed=0;html=1;strokeColor=none;labelPosition=center;verticalLabelPosition=bottom;verticalAlign=top;align=center;fillColor=#00188D;shape=mxgraph.mscae.enterprise.secure_virtual_machine" parent="jZVaUwOg5UY3L9NAnvdq-71" vertex="1">
          <mxGeometry x="23.5" y="620" width="78.95" height="60" as="geometry" />
        </mxCell>
        <mxCell id="i77gJU5wFre7sJVHuuvo-24" value="Almacenamiento&lt;div&gt;de logs&lt;/div&gt;" style="edgeStyle=orthogonalEdgeStyle;rounded=0;orthogonalLoop=1;jettySize=auto;html=1;" parent="jZVaUwOg5UY3L9NAnvdq-71" source="i77gJU5wFre7sJVHuuvo-10" target="i77gJU5wFre7sJVHuuvo-15" edge="1">
          <mxGeometry x="0.4512" relative="1" as="geometry">
            <mxPoint as="offset" />
          </mxGeometry>
        </mxCell>
        <mxCell id="i77gJU5wFre7sJVHuuvo-25" style="edgeStyle=orthogonalEdgeStyle;rounded=0;orthogonalLoop=1;jettySize=auto;html=1;exitX=0.25;exitY=0;exitDx=0;exitDy=0;" parent="jZVaUwOg5UY3L9NAnvdq-71" source="i77gJU5wFre7sJVHuuvo-53" target="i77gJU5wFre7sJVHuuvo-19" edge="1">
          <mxGeometry relative="1" as="geometry" />
        </mxCell>
        <mxCell id="i77gJU5wFre7sJVHuuvo-27" value="Datos procesados" style="edgeLabel;html=1;align=center;verticalAlign=middle;resizable=0;points=[];" parent="i77gJU5wFre7sJVHuuvo-25" vertex="1" connectable="0">
          <mxGeometry x="0.4081" y="-1" relative="1" as="geometry">
            <mxPoint x="-1" as="offset" />
          </mxGeometry>
        </mxCell>
        <mxCell id="i77gJU5wFre7sJVHuuvo-78" style="edgeStyle=orthogonalEdgeStyle;rounded=0;orthogonalLoop=1;jettySize=auto;html=1;" parent="jZVaUwOg5UY3L9NAnvdq-71" source="i77gJU5wFre7sJVHuuvo-10" target="i77gJU5wFre7sJVHuuvo-53" edge="1">
          <mxGeometry relative="1" as="geometry">
            <Array as="points">
              <mxPoint x="534" y="379" />
              <mxPoint x="534" y="330" />
            </Array>
          </mxGeometry>
        </mxCell>
        <mxCell id="i77gJU5wFre7sJVHuuvo-79" value="Text" style="edgeLabel;html=1;align=center;verticalAlign=middle;resizable=0;points=[];" parent="i77gJU5wFre7sJVHuuvo-78" vertex="1" connectable="0">
          <mxGeometry x="0.2235" y="-2" relative="1" as="geometry">
            <mxPoint as="offset" />
          </mxGeometry>
        </mxCell>
        <mxCell id="i77gJU5wFre7sJVHuuvo-80" value="EnvÃ­o de logs&lt;div&gt;en tiempo real&lt;/div&gt;" style="edgeLabel;html=1;align=center;verticalAlign=middle;resizable=0;points=[];" parent="i77gJU5wFre7sJVHuuvo-78" vertex="1" connectable="0">
          <mxGeometry x="0.2121" y="-5" relative="1" as="geometry">
            <mxPoint y="-20" as="offset" />
          </mxGeometry>
        </mxCell>
        <mxCell id="i77gJU5wFre7sJVHuuvo-10" value="Kinesis" style="outlineConnect=0;dashed=0;verticalLabelPosition=bottom;verticalAlign=top;align=center;html=1;shape=mxgraph.aws3.kinesis;fillColor=#F58534;gradientColor=none;labelBackgroundColor=default;" parent="jZVaUwOg5UY3L9NAnvdq-71" vertex="1">
          <mxGeometry x="243.5" y="338" width="67.5" height="81" as="geometry" />
        </mxCell>
        <mxCell id="i77gJU5wFre7sJVHuuvo-90" value="Logs procesados&lt;div&gt;con alertas de&lt;/div&gt;&lt;div&gt;seguridad&lt;/div&gt;" style="edgeStyle=orthogonalEdgeStyle;rounded=0;orthogonalLoop=1;jettySize=auto;html=1;" parent="jZVaUwOg5UY3L9NAnvdq-71" source="i77gJU5wFre7sJVHuuvo-15" target="i77gJU5wFre7sJVHuuvo-89" edge="1">
          <mxGeometry relative="1" as="geometry" />
        </mxCell>
        <mxCell id="i77gJU5wFre7sJVHuuvo-15" value="S3" style="outlineConnect=0;dashed=0;verticalLabelPosition=bottom;verticalAlign=top;align=center;html=1;shape=mxgraph.aws3.s3;fillColor=#E05243;gradientColor=none;labelBorderColor=none;horizontal=1;" parent="jZVaUwOg5UY3L9NAnvdq-71" vertex="1">
          <mxGeometry x="353.5" y="560" width="76.5" height="93" as="geometry" />
        </mxCell>
        <mxCell id="i77gJU5wFre7sJVHuuvo-19" value="Lambda" style="outlineConnect=0;dashed=0;verticalLabelPosition=bottom;verticalAlign=top;align=center;html=1;shape=mxgraph.aws3.lambda;fillColor=#F58534;gradientColor=none;labelBackgroundColor=default;" parent="jZVaUwOg5UY3L9NAnvdq-71" vertex="1">
          <mxGeometry x="383.5" y="180" width="76.5" height="93" as="geometry" />
        </mxCell>
        <mxCell id="i77gJU5wFre7sJVHuuvo-28" value="Equipo de Seguridad" style="sketch=0;pointerEvents=1;shadow=0;dashed=0;html=1;strokeColor=none;fillColor=#505050;labelPosition=center;verticalLabelPosition=bottom;verticalAlign=top;outlineConnect=0;align=center;shape=mxgraph.office.sites.site_team;" parent="jZVaUwOg5UY3L9NAnvdq-71" vertex="1">
          <mxGeometry x="971.5" y="348.5" width="86.5" height="79" as="geometry" />
        </mxCell>
        <mxCell id="i77gJU5wFre7sJVHuuvo-33" style="edgeStyle=orthogonalEdgeStyle;rounded=0;orthogonalLoop=1;jettySize=auto;html=1;" parent="jZVaUwOg5UY3L9NAnvdq-71" source="i77gJU5wFre7sJVHuuvo-30" target="i77gJU5wFre7sJVHuuvo-28" edge="1">
          <mxGeometry relative="1" as="geometry" />
        </mxCell>
        <mxCell id="i77gJU5wFre7sJVHuuvo-91" style="edgeStyle=orthogonalEdgeStyle;rounded=0;orthogonalLoop=1;jettySize=auto;html=1;" parent="jZVaUwOg5UY3L9NAnvdq-71" source="i77gJU5wFre7sJVHuuvo-53" target="i77gJU5wFre7sJVHuuvo-89" edge="1">
          <mxGeometry relative="1" as="geometry" />
        </mxCell>
        <mxCell id="i77gJU5wFre7sJVHuuvo-92" value="&lt;span style=&quot;font-size: 12px; background-color: rgb(251, 251, 251);&quot;&gt;AnÃ¡lisis&lt;/span&gt;&lt;div style=&quot;font-size: 12px; background-color: rgb(251, 251, 251);&quot;&gt;realizados&lt;/div&gt;" style="edgeLabel;html=1;align=center;verticalAlign=middle;resizable=0;points=[];" parent="i77gJU5wFre7sJVHuuvo-91" vertex="1" connectable="0">
          <mxGeometry x="0.0283" relative="1" as="geometry">
            <mxPoint as="offset" />
          </mxGeometry>
        </mxCell>
        <mxCell id="i77gJU5wFre7sJVHuuvo-53" value="AWS EC2" style="points=[[0,0],[0.25,0],[0.5,0],[0.75,0],[1,0],[1,0.25],[1,0.5],[1,0.75],[1,1],[0.75,1],[0.5,1],[0.25,1],[0,1],[0,0.75],[0,0.5],[0,0.25]];outlineConnect=0;gradientColor=none;html=1;whiteSpace=wrap;fontSize=12;fontStyle=0;shape=mxgraph.aws4.group;grIcon=mxgraph.aws4.group_aws_cloud_alt;strokeColor=#232F3E;fillColor=none;verticalAlign=top;align=left;spacingLeft=30;fontColor=#232F3E;dashed=0;labelBackgroundColor=none;container=1;pointerEvents=0;collapsible=0;recursiveResize=0;" parent="jZVaUwOg5UY3L9NAnvdq-71" vertex="1">
          <mxGeometry x="643.5" y="249" width="276.5" height="178.5" as="geometry" />
        </mxCell>
        <mxCell id="i77gJU5wFre7sJVHuuvo-72" value="" style="outlineConnect=0;dashed=0;verticalLabelPosition=bottom;verticalAlign=top;align=center;html=1;shape=mxgraph.aws3.ec2;fillColor=#F58534;gradientColor=none;" parent="i77gJU5wFre7sJVHuuvo-53" vertex="1">
          <mxGeometry x="7.5" y="40" width="76.5" height="93" as="geometry" />
        </mxCell>
        <mxCell id="i77gJU5wFre7sJVHuuvo-73" value="Algoritmos de detecciÃ³n&lt;div&gt;de amenazas&lt;/div&gt;" style="shape=image;html=1;verticalAlign=top;verticalLabelPosition=bottom;labelBackgroundColor=#ffffff;imageAspect=0;aspect=fixed;image=https://cdn1.iconfinder.com/data/icons/social-media-2106/24/social_media_social_media_logo_docker-128.png" parent="i77gJU5wFre7sJVHuuvo-53" vertex="1">
          <mxGeometry x="157" y="41.75" width="89.5" height="89.5" as="geometry" />
        </mxCell>
        <mxCell id="i77gJU5wFre7sJVHuuvo-75" style="edgeStyle=orthogonalEdgeStyle;rounded=0;orthogonalLoop=1;jettySize=auto;html=1;entryX=1;entryY=0.5;entryDx=0;entryDy=0;entryPerimeter=0;shape=flexArrow;" parent="i77gJU5wFre7sJVHuuvo-53" source="i77gJU5wFre7sJVHuuvo-73" target="i77gJU5wFre7sJVHuuvo-72" edge="1">
          <mxGeometry relative="1" as="geometry" />
        </mxCell>
        <mxCell id="i77gJU5wFre7sJVHuuvo-81" style="edgeStyle=orthogonalEdgeStyle;rounded=0;orthogonalLoop=1;jettySize=auto;html=1;entryX=0.1;entryY=0.5;entryDx=0;entryDy=0;entryPerimeter=0;" parent="jZVaUwOg5UY3L9NAnvdq-71" source="i77gJU5wFre7sJVHuuvo-53" target="i77gJU5wFre7sJVHuuvo-30" edge="1">
          <mxGeometry relative="1" as="geometry">
            <Array as="points">
              <mxPoint x="782" y="61" />
            </Array>
          </mxGeometry>
        </mxCell>
        <mxCell id="i77gJU5wFre7sJVHuuvo-82" value="Reporte de&lt;div&gt;notificaciÃ³n&lt;/div&gt;" style="edgeLabel;html=1;align=center;verticalAlign=middle;resizable=0;points=[];" parent="i77gJU5wFre7sJVHuuvo-81" vertex="1" connectable="0">
          <mxGeometry x="-0.1982" relative="1" as="geometry">
            <mxPoint x="104" as="offset" />
          </mxGeometry>
        </mxCell>
        <mxCell id="i77gJU5wFre7sJVHuuvo-88" style="edgeStyle=orthogonalEdgeStyle;rounded=0;orthogonalLoop=1;jettySize=auto;html=1;" parent="jZVaUwOg5UY3L9NAnvdq-71" source="i77gJU5wFre7sJVHuuvo-83" edge="1">
          <mxGeometry relative="1" as="geometry">
            <mxPoint x="1003.5" y="60.5" as="targetPoint" />
          </mxGeometry>
        </mxCell>
        <mxCell id="i77gJU5wFre7sJVHuuvo-83" value="SNS" style="outlineConnect=0;dashed=0;verticalLabelPosition=bottom;verticalAlign=top;align=center;html=1;shape=mxgraph.aws3.sns;fillColor=#D9A741;gradientColor=none;" parent="jZVaUwOg5UY3L9NAnvdq-71" vertex="1">
          <mxGeometry x="523.5" y="22.25" width="76.5" height="76.5" as="geometry" />
        </mxCell>
        <mxCell id="i77gJU5wFre7sJVHuuvo-84" style="edgeStyle=orthogonalEdgeStyle;rounded=0;orthogonalLoop=1;jettySize=auto;html=1;entryX=0;entryY=0.48;entryDx=0;entryDy=0;entryPerimeter=0;exitX=0.5;exitY=0;exitDx=0;exitDy=0;exitPerimeter=0;" parent="jZVaUwOg5UY3L9NAnvdq-71" source="i77gJU5wFre7sJVHuuvo-19" target="i77gJU5wFre7sJVHuuvo-83" edge="1">
          <mxGeometry relative="1" as="geometry" />
        </mxCell>
        <mxCell id="i77gJU5wFre7sJVHuuvo-86" value="Reporte de&lt;div&gt;procesamiento de&lt;/div&gt;&lt;div&gt;logs&lt;/div&gt;" style="edgeLabel;html=1;align=center;verticalAlign=middle;resizable=0;points=[];" parent="i77gJU5wFre7sJVHuuvo-84" vertex="1" connectable="0">
          <mxGeometry x="-0.3995" relative="1" as="geometry">
            <mxPoint as="offset" />
          </mxGeometry>
        </mxCell>
        <mxCell id="i77gJU5wFre7sJVHuuvo-30" value="CloudWatch" style="outlineConnect=0;dashed=0;verticalLabelPosition=bottom;verticalAlign=top;align=center;html=1;shape=mxgraph.aws3.cloudwatch;fillColor=#759C3E;gradientColor=none;" parent="jZVaUwOg5UY3L9NAnvdq-71" vertex="1">
          <mxGeometry x="973.5000000000001" y="14" width="82.5" height="93" as="geometry" />
        </mxCell>
        <mxCell id="i77gJU5wFre7sJVHuuvo-89" value="RDS - PostgreSQL" style="outlineConnect=0;dashed=0;verticalLabelPosition=bottom;verticalAlign=top;align=center;html=1;shape=mxgraph.aws3.rds;fillColor=#2E73B8;gradientColor=none;" parent="jZVaUwOg5UY3L9NAnvdq-71" vertex="1">
          <mxGeometry x="745.75" y="566" width="72" height="81" as="geometry" />
        </mxCell>
        <mxCell id="-QjtrjUzRDEMRZ5MF8oH-47" value="Diagrama de Arquitectura" style="text;html=1;resizable=0;points=[];autosize=1;align=left;verticalAlign=top;spacingTop=-4;fontSize=30;fontStyle=1;labelBackgroundColor=none;" parent="1" vertex="1">
          <mxGeometry x="36.5" y="26.5" width="360" height="40" as="geometry" />
        </mxCell>
        <mxCell id="-QjtrjUzRDEMRZ5MF8oH-48" value="Ciberseguridad Proactiva S.L." style="text;html=1;resizable=0;points=[];autosize=1;align=left;verticalAlign=top;spacingTop=-4;fontSize=16;labelBackgroundColor=none;" parent="1" vertex="1">
          <mxGeometry x="36.5" y="76.5" width="240" height="30" as="geometry" />
        </mxCell>
        <mxCell id="SCVMTBWpLvtzJIhz15lM-1" value="" style="line;strokeWidth=2;html=1;fontSize=14;labelBackgroundColor=none;" parent="1" vertex="1">
          <mxGeometry x="32.5" y="101.5" width="1117.5" height="10" as="geometry" />
        </mxCell>
      </root>
    </mxGraphModel>
  </diagram>
</mxfile>
